<?xml version="1.0" encoding="UTF-8"?>
<svg id="_Слой_1" data-name="Слой_1" xmlns="http://www.w3.org/2000/svg" xmlns:xlink="http://www.w3.org/1999/xlink" viewBox="0 0 595.28 841.89">
  <defs>
    <style>
      .cls-1 {
        fill: #e9aa47;
      }

      .cls-2 {
        stroke: #e9aa47;
        stroke-width: 6.96px;
      }

      .cls-2, .cls-3, .cls-4 {
        fill: none;
      }

      .cls-2, .cls-4 {
        stroke-linecap: round;
        stroke-miterlimit: 10;
      }

      .cls-4 {
        stroke: #015144;
        stroke-width: 5.35px;
      }

      .cls-5 {
        clip-path: url(#clippath-1);
      }

      .cls-6 {
        fill: #015144;
      }

      .cls-7 {
        clip-path: url(#clippath);
      }
    </style>
    <clipPath id="clippath">
      <rect class="cls-3" x="177.54" y="202.17" width="107.54" height="236.48"/>
    </clipPath>
    <clipPath id="clippath-1">
      <rect class="cls-3" x="313.39" y="202.17" width="107.54" height="236.48"/>
    </clipPath>
  </defs>
  <circle class="cls-6" cx="299.23" cy="337.78" r="154.08"/>
  <path class="cls-1" d="M373.33,283.74c-6.42-26.22-29.43-21.4-29.43-21.4-2.14-15.52-9.63-25.15-20.87-31.57-10.57-6.04-20.31-6.39-23.54-6.42h0c-.08,0-.17,0-.27,0-.1,0-.19,0-.27,0h0c-3.18.03-12.48.38-23.54,6.42-11.36,6.2-18.73,16.05-20.87,31.57,0,0-23.01-4.82-29.43,21.4,0,0-42.07,2.16-39.06,42.8,3.21,43.34,51.9,44.94,72.76,35.85,0,0,12.68,16.69,40.13,16.58h0c.09,0,.18,0,.27,0,.09,0,.18,0,.27,0h0c27.45.1,40.13-16.59,40.13-16.59,20.87,9.1,69.55,7.49,72.76-35.85,3.01-40.64-39.06-42.8-39.06-42.8Z"/>
  <g>
    <g id="_x3C_Зеркальный_повтор_x3E_">
      <g class="cls-7">
        <line class="cls-2" x1="269.29" y1="389.16" x2="254.85" y2="431.96"/>
        <line class="cls-2" x1="249.5" y1="376.86" x2="203.49" y2="435.17"/>
        <line class="cls-2" x1="279.46" y1="205.65" x2="281.6" y2="215.82"/>
        <line class="cls-2" x1="240.94" y1="217.42" x2="249.5" y2="232.4"/>
        <line class="cls-2" x1="207.6" y1="239.36" x2="223.54" y2="253.21"/>
        <line class="cls-2" x1="181.01" y1="273.6" x2="201.07" y2="277.75"/>
      </g>
    </g>
    <g id="_x3C_Зеркальный_повтор_x3E_-2" data-name="_x3C_Зеркальный_повтор_x3E_">
      <g class="cls-5">
        <line class="cls-2" x1="329.18" y1="389.16" x2="343.62" y2="431.96"/>
        <line class="cls-2" x1="348.97" y1="376.86" x2="394.98" y2="435.17"/>
        <line class="cls-2" x1="319.01" y1="205.65" x2="316.87" y2="215.82"/>
        <line class="cls-2" x1="357.53" y1="217.42" x2="348.97" y2="232.4"/>
        <line class="cls-2" x1="390.87" y1="239.36" x2="374.93" y2="253.21"/>
        <line class="cls-2" x1="417.45" y1="273.6" x2="397.4" y2="277.75"/>
      </g>
    </g>
  </g>
  <path class="cls-1" d="M322.04,422.83c-15.35-4.32-17.04-11.84-21.33-25.34-.44-1.39-.84-1.67-1.48-1.65h0c-.64-.02-1.04.26-1.48,1.65-4.29,13.5-5.97,21.02-21.33,25.34-.92.26-1.72,1.01-1.72,1.92s.8,1.66,1.72,1.92c15.35,4.32,17.04,11.84,21.33,25.34.44,1.39.84,1.67,1.48,1.65h0c.64.02,1.04-.26,1.48-1.65,4.29-13.5,5.97-21.02,21.33-25.34.92-.26,1.72-1.01,1.72-1.92s-.8-1.66-1.72-1.92Z"/>
  <path class="cls-1" d="M299,472.89v-7.38h0c-.68,0-1.29-.39-1.6-1-3.59-7-14.41-17.86-38.77-21.87,0,.02,7.36,30.25,40.37,30.25Z"/>
  <path class="cls-1" d="M298.99,472.89v-7.38h1.01c.07-.01.14-.05.17-.12,3.11-6.93,13.79-18.57,39.19-22.75,0,.02-7.36,30.25-40.37,30.25Z"/>
  <g>
    <path class="cls-1" d="M388.06,389.02c9.71-2.73,10.78-7.49,13.49-16.03.28-.88.53-1.06.94-1.05h0c.4-.01.66.17.94,1.05,2.71,8.54,3.78,13.29,13.49,16.03.58.16,1.09.64,1.09,1.22s-.5,1.05-1.09,1.22c-9.71,2.73-10.78,7.49-13.49,16.03-.28.88-.53,1.06-.94,1.05h0c-.4.01-.66-.17-.94-1.05-2.71-8.54-3.78-13.29-13.49-16.03-.58-.16-1.09-.64-1.09-1.22s.5-1.05,1.09-1.22Z"/>
    <path class="cls-1" d="M414.98,348.58c6.39-1.8,7.09-4.93,8.88-10.55.18-.58.35-.7.62-.69h0c.26,0,.43.11.62.69,1.78,5.62,2.49,8.75,8.88,10.55.38.11.72.42.72.8s-.33.69-.72.8c-6.39,1.8-7.09,4.93-8.88,10.55-.18.58-.35.7-.62.69h0c-.26,0-.43-.11-.62-.69-1.78-5.62-2.49-8.75-8.88-10.55-.38-.11-.72-.42-.72-.8s.33-.69.72-.8Z"/>
    <path class="cls-1" d="M210.4,389.02c-9.71-2.73-10.78-7.49-13.49-16.03-.28-.88-.53-1.06-.94-1.05h0c-.4-.01-.66.17-.94,1.05-2.71,8.54-3.78,13.29-13.49,16.03-.58.16-1.09.64-1.09,1.22s.5,1.05,1.09,1.22c9.71,2.73,10.78,7.49,13.49,16.03.28.88.53,1.06.94,1.05h0c.4.01.66-.17.94-1.05,2.71-8.54,3.78-13.29,13.49-16.03.58-.16,1.09-.64,1.09-1.22s-.5-1.05-1.09-1.22Z"/>
    <path class="cls-1" d="M183.49,348.58c-6.39-1.8-7.09-4.93-8.88-10.55-.18-.58-.35-.7-.62-.69h0c-.26,0-.43.11-.62.69-1.78,5.62-2.49,8.75-8.88,10.55-.38.11-.72.42-.72.8s.33.69.72.8c6.39,1.8,7.09,4.93,8.88,10.55.18.58.35.7.62.69h0c.26,0,.43-.11.62-.69,1.78-5.62,2.49-8.75,8.88-10.55.38-.11.72-.42.72-.8s-.33-.69-.72-.8Z"/>
  </g>
  <g>
    <path class="cls-4" d="M299.44,380.31s-32.63,1.51-46.47-22.45"/>
    <path class="cls-4" d="M298.96,380.57s32.69,1.25,46.53-22.7"/>
  </g>
  <g>
    <path class="cls-6" d="M182.97,575.84h-24.23l-4.67,9.99c-.9,1.64-2.05,2.7-4.17,2.7-2.95,0-4.75-2.29-4.75-4.67,0-.65.16-1.31.49-1.96l20.95-46.58c.74-1.64,2.13-2.62,4.26-2.62s3.52.9,4.26,2.62l20.95,46.58c.33.65.49,1.31.49,1.96,0,2.37-1.8,4.67-4.75,4.67-2.13,0-3.27-.98-4.17-2.7l-4.67-9.99ZM170.85,546.3l-8.51,20.79h17.03l-8.51-20.79Z"/>
    <path class="cls-6" d="M243.21,539.34l-20.22,46.49c-.74,1.64-2.46,2.7-4.26,2.7s-3.52-.98-4.26-2.7l-20.3-46.49c-.25-.57-.41-1.23-.41-1.88,0-2.46,2.05-4.75,4.58-4.75,1.8,0,3.6.98,4.34,2.7l15.96,38.06,16.13-38.06c.74-1.64,2.37-2.7,4.17-2.7,2.62,0,4.67,2.13,4.67,4.67,0,.65-.16,1.31-.41,1.96Z"/>
    <path class="cls-6" d="M278.66,575.84h-24.23l-4.67,9.99c-.9,1.64-2.05,2.7-4.17,2.7-2.95,0-4.75-2.29-4.75-4.67,0-.65.16-1.31.49-1.96l20.95-46.58c.74-1.64,2.13-2.62,4.26-2.62s3.52.9,4.26,2.62l20.95,46.58c.33.65.49,1.31.49,1.96,0,2.37-1.8,4.67-4.75,4.67-2.13,0-3.27-.98-4.17-2.7l-4.67-9.99ZM266.54,546.3l-8.51,20.79h17.03l-8.51-20.79Z"/>
    <path class="cls-6" d="M306.73,587.88c-2.78,0-5.08-2.29-5.08-5.07v-45.02c0-2.78,2.29-5.07,5.08-5.07s4.91,2.29,4.91,5.07v40.68h23.9c2.54,0,4.67,2.05,4.67,4.67s-2.13,4.67-4.67,4.75h-28.81Z"/>
    <path class="cls-6" d="M370.17,588.86c-16.04,0-27.99-12.44-27.99-28.24s11.95-28.24,27.99-28.24,27.99,12.44,27.99,28.24-11.95,28.24-27.99,28.24ZM370.17,541.38c-11.13,0-17.93,8.84-17.93,19.24s6.79,19.24,17.93,19.24,17.93-8.84,17.93-19.24-6.79-19.24-17.93-19.24Z"/>
    <path class="cls-6" d="M448.51,588.53c-1.55,0-2.7-.57-3.6-1.72l-28.24-35.69v32.74c0,2.62-2.13,4.67-4.75,4.67s-4.67-2.13-4.67-4.67v-46.41c0-2.54,1.88-4.75,4.91-4.75,1.31,0,2.7.74,3.44,1.72l28.24,35.69v-32.66c0-2.54,1.88-4.75,4.67-4.75s4.75,2.21,4.75,4.75v46.41c0,2.54-1.97,4.67-4.75,4.67Z"/>
  </g>
  <g>
    <path class="cls-6" d="M154.94,617.06c.28.3.43.6.43,1.03,0,.68-.48,1.16-1.18,1.16-.4,0-.65-.1-.93-.3-.4-.3-1.08-.8-2.16-.8-1.93,0-2.94,1.51-2.94,3.19s1,3.19,2.94,3.19c1.08,0,1.76-.5,2.16-.8.28-.2.53-.3.93-.3.7,0,1.18.48,1.18,1.16,0,.43-.15.73-.43,1.03-.73.8-2.08,1.48-3.87,1.48-3.64,0-5.93-2.54-5.93-5.75s2.29-5.75,5.93-5.75c1.78,0,3.14.68,3.87,1.48Z"/>
    <path class="cls-6" d="M164.36,615.58c2.81,0,4.42,2.16,4.42,5.17v4.72c0,.83-.68,1.51-1.51,1.51s-1.51-.68-1.51-1.51v-4.57c0-1.46-.73-2.61-2.29-2.61-1.68,0-2.36,1.28-2.36,2.61v4.57c0,.83-.68,1.51-1.51,1.51s-1.51-.68-1.51-1.51v-14.11c0-.83.68-1.51,1.51-1.51s1.51.68,1.51,1.51v6.05c.6-1.1,1.68-1.83,3.24-1.83Z"/>
    <path class="cls-6" d="M173.73,610.68c.95,0,1.71.75,1.71,1.71s-.75,1.71-1.71,1.71-1.71-.75-1.71-1.71.75-1.71,1.71-1.71ZM172.23,617.18c0-.83.68-1.51,1.51-1.51s1.51.68,1.51,1.51v8.29c0,.83-.68,1.51-1.51,1.51s-1.51-.68-1.51-1.51v-8.29Z"/>
    <path class="cls-6" d="M178.81,611.36c0-.83.68-1.51,1.51-1.51s1.51.68,1.51,1.51v14.11c0,.83-.68,1.51-1.51,1.51s-1.51-.68-1.51-1.51v-14.11Z"/>
    <path class="cls-6" d="M196.09,625.47c0,.83-.58,1.51-1.46,1.51s-1.46-.7-1.46-1.53v-.15c-.73,1.11-1.96,1.78-3.44,1.78-3.34,0-5.1-2.79-5.1-5.75s1.78-5.75,5.1-5.75c1.31,0,2.59.55,3.34,1.78v-6c0-.83.68-1.51,1.51-1.51s1.51.68,1.51,1.51v14.11ZM190.39,624.52c1.73,0,2.69-1.51,2.69-3.19s-.98-3.19-2.69-3.19-2.74,1.43-2.74,3.19,1,3.19,2.74,3.19Z"/>
    <path class="cls-6" d="M205.63,618.29c-1.78,0-2.94,1.23-2.94,3.26v3.92c0,.83-.68,1.51-1.51,1.51s-1.53-.68-1.53-1.51v-8.26c0-.9.63-1.53,1.53-1.53.83,0,1.51.7,1.51,1.53v.28c.53-1.21,1.48-1.91,2.94-1.91.88,0,1.36.6,1.36,1.36s-.55,1.36-1.36,1.36Z"/>
    <path class="cls-6" d="M217.87,622.31h-6.68c.15,1.31.98,2.39,2.71,2.39.95,0,1.73-.28,2.31-.73.35-.28.65-.5,1.1-.5.75,0,1.21.48,1.21,1.1,0,.7-.55,1.18-1.08,1.51-.83.53-1.93,1-3.67,1-3.77,0-5.73-2.61-5.73-5.75,0-3.32,2.39-5.75,5.68-5.75s5.22,2.46,5.22,5.75c0,.48-.3.98-1.08.98ZM213.72,617.99c-1.38,0-2.34.9-2.49,2.19h4.85c-.23-1.16-1.03-2.19-2.36-2.19Z"/>
    <path class="cls-6" d="M227.26,618.29c-1.68,0-2.36,1.28-2.36,2.61v4.57c0,.83-.68,1.51-1.51,1.51s-1.51-.68-1.51-1.51v-8.26c0-.95.65-1.53,1.51-1.53s1.51.58,1.51,1.53v.2c.6-1.1,1.68-1.83,3.24-1.83,2.81,0,4.42,2.16,4.42,5.17v4.72c0,.83-.68,1.51-1.51,1.51s-1.51-.68-1.51-1.51v-4.57c0-1.46-.73-2.61-2.29-2.61Z"/>
    <path class="cls-6" d="M237.79,616.53c-.3.48-.73.83-1.28.83-.85,0-1.31-.53-1.31-1.06,0-.38.13-.55.28-.83.7-1.28.8-2.13.8-3.49v-.75c0-.8.48-1.41,1.33-1.41s1.33.58,1.33,1.41v.63c0,1.51-.18,3.16-1.16,4.67Z"/>
    <path class="cls-6" d="M248.39,618.87c-.4,0-.85-.28-1.33-.48-.68-.28-1.23-.4-1.86-.4-.93,0-1.56.23-1.56.83s.48.85,2.08,1.28c2.39.65,4.09,1.38,4.09,3.62,0,2.01-1.68,3.37-4.52,3.37-1.56,0-3.01-.43-3.97-1.13-.48-.35-.65-.8-.65-1.28,0-.58.5-.98,1.1-.98.5,0,.83.2,1.18.43.53.33,1.36.75,2.41.75.95,0,1.58-.33,1.58-.9s-.58-.85-2.06-1.26c-3.19-.85-4.12-2.11-4.12-3.87s1.53-3.26,4.5-3.26c.95,0,1.88.18,2.74.58.88.4,1.53.93,1.53,1.61,0,.63-.33,1.1-1.16,1.1Z"/>
    <path class="cls-6" d="M261.47,610.68c.95,0,1.71.75,1.71,1.71s-.75,1.71-1.71,1.71-1.71-.75-1.71-1.71.75-1.71,1.71-1.71ZM259.97,617.18c0-.83.68-1.51,1.51-1.51s1.51.68,1.51,1.51v8.29c0,.83-.68,1.51-1.51,1.51s-1.51-.68-1.51-1.51v-8.29Z"/>
    <path class="cls-6" d="M271.92,618.29c-1.68,0-2.36,1.28-2.36,2.61v4.57c0,.83-.68,1.51-1.51,1.51s-1.51-.68-1.51-1.51v-8.26c0-.95.65-1.53,1.51-1.53s1.51.58,1.51,1.53v.2c.6-1.1,1.68-1.83,3.24-1.83,2.81,0,4.42,2.16,4.42,5.17v4.72c0,.83-.68,1.51-1.51,1.51s-1.51-.68-1.51-1.51v-4.57c0-1.46-.73-2.61-2.29-2.61Z"/>
    <path class="cls-6" d="M286.04,618.29c-1.68,0-2.36,1.28-2.36,2.61v4.57c0,.83-.68,1.51-1.51,1.51s-1.51-.68-1.51-1.51v-8.26c0-.95.65-1.53,1.51-1.53s1.51.58,1.51,1.53v.2c.6-1.1,1.68-1.83,3.24-1.83,2.81,0,4.42,2.16,4.42,5.17v4.72c0,.83-.68,1.51-1.51,1.51s-1.51-.68-1.51-1.51v-4.57c0-1.46-.73-2.61-2.29-2.61Z"/>
    <path class="cls-6" d="M299.83,627.08c-3.39,0-5.75-2.59-5.75-5.75s2.36-5.75,5.75-5.75,5.75,2.59,5.75,5.75-2.36,5.75-5.75,5.75ZM299.83,618.19c-1.73,0-2.79,1.46-2.79,3.14s1.05,3.14,2.79,3.14,2.79-1.46,2.79-3.14-1.06-3.14-2.79-3.14Z"/>
    <path class="cls-6" d="M317.61,617.61l-3.92,8.56c-.23.48-.7.8-1.23.8s-1-.33-1.23-.8l-3.92-8.56c-.08-.18-.13-.35-.13-.55,0-.75.58-1.38,1.36-1.38.65,0,1.05.33,1.25.8l2.66,6.25,2.66-6.25c.23-.5.68-.8,1.26-.8.8,0,1.36.63,1.36,1.38,0,.2-.05.38-.13.55Z"/>
    <path class="cls-6" d="M326.76,625.42c-.7,1.13-1.86,1.66-3.24,1.66-2.41,0-3.92-1.46-3.92-3.44,0-2.29,1.76-3.44,4.07-3.44,1.16,0,2.31.38,3.04,1.16v-.8c0-1.68-.6-2.41-2.56-2.41-1.43,0-2.31.55-2.99.55-.73,0-1.28-.53-1.28-1.23,0-1.63,3.36-1.88,4.54-1.88,3.42,0,5.3,1.66,5.3,4.77v5.12c0,.83-.6,1.51-1.48,1.51s-1.48-.68-1.48-1.51v-.05ZM324.6,622.21c-1.23,0-2.01.55-2.01,1.43s.85,1.43,2.01,1.43,2.11-.63,2.11-1.43-.93-1.43-2.11-1.43Z"/>
    <path class="cls-6" d="M334.37,618.39h-1.68c-.7,0-1.23-.55-1.23-1.26s.53-1.26,1.23-1.26h1.68v-3.11c0-.83.68-1.51,1.51-1.51s1.51.68,1.51,1.51v3.11h1.96c.7,0,1.26.55,1.26,1.26s-.55,1.26-1.26,1.26h-1.96v7.08c0,.83-.68,1.51-1.51,1.51s-1.51-.68-1.51-1.51v-7.08Z"/>
    <path class="cls-6" d="M344.04,610.68c.95,0,1.71.75,1.71,1.71s-.75,1.71-1.71,1.71-1.71-.75-1.71-1.71.75-1.71,1.71-1.71ZM342.53,617.18c0-.83.68-1.51,1.51-1.51s1.51.68,1.51,1.51v8.29c0,.83-.68,1.51-1.51,1.51s-1.51-.68-1.51-1.51v-8.29Z"/>
    <path class="cls-6" d="M354.16,627.08c-3.39,0-5.75-2.59-5.75-5.75s2.36-5.75,5.75-5.75,5.75,2.59,5.75,5.75-2.36,5.75-5.75,5.75ZM354.16,618.19c-1.73,0-2.79,1.46-2.79,3.14s1.06,3.14,2.79,3.14,2.79-1.46,2.79-3.14-1.05-3.14-2.79-3.14Z"/>
    <path class="cls-6" d="M368.15,618.29c-1.68,0-2.36,1.28-2.36,2.61v4.57c0,.83-.68,1.51-1.51,1.51s-1.51-.68-1.51-1.51v-8.26c0-.95.65-1.53,1.51-1.53s1.51.58,1.51,1.53v.2c.6-1.1,1.68-1.83,3.24-1.83,2.81,0,4.42,2.16,4.42,5.17v4.72c0,.83-.68,1.51-1.51,1.51s-1.51-.68-1.51-1.51v-4.57c0-1.46-.73-2.61-2.29-2.61Z"/>
    <path class="cls-6" d="M393.27,617.06c.28.3.43.6.43,1.03,0,.68-.48,1.16-1.18,1.16-.4,0-.65-.1-.93-.3-.4-.3-1.08-.8-2.16-.8-1.93,0-2.94,1.51-2.94,3.19s1,3.19,2.94,3.19c1.08,0,1.76-.5,2.16-.8.28-.2.53-.3.93-.3.7,0,1.18.48,1.18,1.16,0,.43-.15.73-.43,1.03-.73.8-2.08,1.48-3.87,1.48-3.64,0-5.93-2.54-5.93-5.75s2.29-5.75,5.93-5.75c1.78,0,3.14.68,3.87,1.48Z"/>
    <path class="cls-6" d="M405.5,622.31h-6.68c.15,1.31.98,2.39,2.71,2.39.95,0,1.73-.28,2.31-.73.35-.28.65-.5,1.1-.5.75,0,1.21.48,1.21,1.1,0,.7-.55,1.18-1.08,1.51-.83.53-1.93,1-3.67,1-3.77,0-5.73-2.61-5.73-5.75,0-3.32,2.39-5.75,5.68-5.75s5.22,2.46,5.22,5.75c0,.48-.3.98-1.08.98ZM401.36,617.99c-1.38,0-2.34.9-2.49,2.19h4.85c-.23-1.16-1.03-2.19-2.36-2.19Z"/>
    <path class="cls-6" d="M414.9,618.29c-1.68,0-2.36,1.28-2.36,2.61v4.57c0,.83-.68,1.51-1.51,1.51s-1.51-.68-1.51-1.51v-8.26c0-.95.65-1.53,1.51-1.53s1.51.58,1.51,1.53v.2c.6-1.1,1.68-1.83,3.24-1.83,2.81,0,4.42,2.16,4.42,5.17v4.72c0,.83-.68,1.51-1.51,1.51s-1.51-.68-1.51-1.51v-4.57c0-1.46-.73-2.61-2.29-2.61Z"/>
    <path class="cls-6" d="M424.97,618.39h-1.68c-.7,0-1.23-.55-1.23-1.26s.53-1.26,1.23-1.26h1.68v-3.11c0-.83.68-1.51,1.51-1.51s1.51.68,1.51,1.51v3.11h1.96c.7,0,1.26.55,1.26,1.26s-.55,1.26-1.26,1.26h-1.96v7.08c0,.83-.68,1.51-1.51,1.51s-1.51-.68-1.51-1.51v-7.08Z"/>
    <path class="cls-6" d="M441.9,622.31h-6.68c.15,1.31.98,2.39,2.71,2.39.95,0,1.73-.28,2.31-.73.35-.28.65-.5,1.1-.5.75,0,1.21.48,1.21,1.1,0,.7-.55,1.18-1.08,1.51-.83.53-1.93,1-3.67,1-3.77,0-5.73-2.61-5.73-5.75,0-3.32,2.39-5.75,5.68-5.75s5.22,2.46,5.22,5.75c0,.48-.3.98-1.08.98ZM437.76,617.99c-1.38,0-2.34.9-2.49,2.19h4.85c-.23-1.16-1.03-2.19-2.36-2.19Z"/>
    <path class="cls-6" d="M451.9,618.29c-1.78,0-2.94,1.23-2.94,3.26v3.92c0,.83-.68,1.51-1.51,1.51s-1.53-.68-1.53-1.51v-8.26c0-.9.63-1.53,1.53-1.53.83,0,1.51.7,1.51,1.53v.28c.53-1.21,1.48-1.91,2.94-1.91.88,0,1.36.6,1.36,1.36s-.55,1.36-1.36,1.36Z"/>
  </g>
  <g>
    <path class="cls-4" d="M281.52,294.61c0,6.04-4.9,10.94-10.94,10.94s-10.94-4.9-10.94-10.94"/>
    <path class="cls-4" d="M338.83,294.61c0,6.04-4.9,10.94-10.94,10.94s-10.94-4.9-10.94-10.94"/>
    <path class="cls-4" d="M310.35,321.61c0,6.04-4.9,10.94-10.94,10.94s-10.94-4.9-10.94-10.94"/>
  </g>
</svg>